<?xml version="1.0" encoding="UTF-8" standalone="no"?>
<!-- Created with Inkscape (http://www.inkscape.org/) -->

<svg
   width="512"
   height="512"
   viewBox="0 0 135.46667 135.46667"
   version="1.1"
   id="svg5"
   inkscape:version="1.2.1 (9c6d41e410, 2022-07-14)"
   sodipodi:docname="ro.fxdata.taskmonitor.viewer-symbolic.svg"
   xmlns:inkscape="http://www.inkscape.org/namespaces/inkscape"
   xmlns:sodipodi="http://sodipodi.sourceforge.net/DTD/sodipodi-0.dtd"
   xmlns="http://www.w3.org/2000/svg"
   xmlns:svg="http://www.w3.org/2000/svg">
  <sodipodi:namedview
     id="namedview7"
     pagecolor="#ffffff"
     bordercolor="#666666"
     borderopacity="1.0"
     inkscape:pageshadow="2"
     inkscape:pageopacity="0.0"
     inkscape:pagecheckerboard="0"
     inkscape:document-units="px"
     showgrid="false"
     inkscape:zoom="1.6361898"
     inkscape:cx="158.29459"
     inkscape:cy="251.80453"
     inkscape:window-width="1920"
     inkscape:window-height="1011"
     inkscape:window-x="0"
     inkscape:window-y="0"
     inkscape:window-maximized="1"
     inkscape:current-layer="layer1"
     inkscape:showpageshadow="2"
     inkscape:deskcolor="#d1d1d1" />
  <defs
     id="defs2" />
  <g
     inkscape:label="Layer 1"
     inkscape:groupmode="layer"
     id="layer1">
    <g
       id="g703"
       transform="matrix(0.9572744,0,0,0.95917529,1.9510831,1.8098395)">
      <path
         id="rect354"
         style="stroke-width:0.264583"
         d="m 33.062761,10.152799 h 89.847189 c 0.36219,0 0.65377,0.291584 0.65377,0.653776 v 98.772655 c 0,0.36219 -0.29158,0.65378 -0.65377,0.65378 H 33.062761 c -0.362192,0 -0.653776,-0.29159 -0.653776,-0.65378 V 10.806575 c 0,-0.362192 0.291584,-0.653776 0.653776,-0.653776 z" />
      <path
         id="rect356"
         style="stroke-width:0.264583"
         d="m 23.10515,17.178211 h 92.41112 c 0.36219,0 0.65378,0.291584 0.65378,0.653777 v 99.711952 c 0,0.36219 -0.29159,0.65377 -0.65378,0.65377 H 23.10515 c -0.362192,0 -0.653776,-0.29158 -0.653776,-0.65377 V 17.831988 c 0,-0.362193 0.291584,-0.653777 0.653776,-0.653777 z" />
      <path
         id="rect360"
         style="stroke-width:0.264583"
         d="m 15.262991,25.919865 h 91.272229 c 0.0847,0 0.15286,0.06818 0.15286,0.152863 v 98.815612 c 0,0.0847 -0.0682,0.15286 -0.15286,0.15286 H 15.262991 c -0.08469,0 -0.152864,-0.0682 -0.152864,-0.15286 V 26.072728 c 0,-0.08469 0.06818,-0.152863 0.152864,-0.152863 z" />
    </g>
  </g>
</svg>
